<?xml version="1.0" encoding="iso-8859-1"?>
<!-- Generator: Adobe Illustrator 19.0.0, SVG Export Plug-In . SVG Version: 6.00 Build 0)  -->
<svg version="1.1" id="Capa_1" xmlns="http://www.w3.org/2000/svg" xmlns:xlink="http://www.w3.org/1999/xlink" x="0px" y="0px"
	 viewBox="0 0 512 512" style="enable-background:new 0 0 512 512;" xml:space="preserve">
<g transform="matrix(1.25 0 0 -1.25 0 45)">
	<g>
		<path style="fill:#FFAC33;" d="M256-77.778v-182.044h68.267c0,0,22.756,0,22.756,22.756v136.533
			c0,22.744-22.756,22.756-22.756,22.756H256z M347.022-305.333H256c-25.088,0-45.511,20.411-45.511,45.511v182.044
			c0,25.1,20.423,45.511,45.511,45.511h91.022c25.1,0,45.511-20.411,45.511-45.511v-182.044
			C392.533-284.922,372.122-305.333,347.022-305.333"/>
		<path style="fill:#FFCC4D;" d="M290.133-55.022c0,25.133-20.378,45.511-45.511,45.511H85.333
			c-25.133,0-45.511-20.378-45.511-45.511v-273.067c0-25.133,20.378-45.511,45.511-45.511h159.289
			c25.133,0,45.511,20.378,45.511,45.511V-55.022z"/>
		<g>
			<path style="fill:#F4900C;" d="M96.711-339.467c-6.28,0-11.378,5.086-11.378,11.378v182.044c0,6.28,5.097,11.378,11.378,11.378
				s11.378-5.097,11.378-11.378v-182.044C108.089-334.381,102.991-339.467,96.711-339.467"/>
			<path style="fill:#F4900C;" d="M164.978-339.467c-6.28,0-11.378,5.086-11.378,11.378v182.044c0,6.28,5.097,11.378,11.378,11.378
				c6.28,0,11.378-5.097,11.378-11.378v-182.044C176.356-334.381,171.258-339.467,164.978-339.467"/>
			<path style="fill:#F4900C;" d="M233.244-339.467c-6.292,0-11.378,5.086-11.378,11.378v182.044c0,6.28,5.086,11.378,11.378,11.378
				s11.378-5.097,11.378-11.378v-182.044C244.622-334.381,239.537-339.467,233.244-339.467"/>
		</g>
	</g>
	<path style="fill:#FFAC33;" d="M290.133-98.584v68.405c-3.559-1.068-7.388-2.087-11.378-2.087
		c-15.246,0-28.012-10.069-32.392-23.859c-2.378,0.648-4.836,1.103-7.43,1.103c-6.679,0-12.731-2.389-17.59-6.246
		c-2.571,22.687-21.606,40.379-44.987,40.379c-22.459,0-41.005-16.315-44.726-37.717c-3.527,2.241-7.68,3.584-12.162,3.584
		c-5.677,0-10.797-2.15-14.779-5.587c-6.793,16.612-23.063,28.342-42.109,28.342c-8.29,0-16.061,6.188-22.756,10.809v-95.726
		c6.696-3.875,14.463-6.105,22.756-6.105c19.046,0,35.316,11.731,42.109,28.342c3.982-3.436,9.102-5.587,14.779-5.587
		c7.703,0,14.484,3.846,18.603,9.705c8.078-12.641,22.164-21.083,38.286-21.083c14.803,0,27.819,7.18,36.136,18.125
		c4.141-10.593,14.381-18.125,26.442-18.125c10.797,0,20.082,6.087,24.906,14.95c4.517-2.219,9.535-3.572,14.917-3.572
		C282.746-100.533,286.574-99.842,290.133-98.584z"/>
	<path style="fill:#E1E8ED;" d="M17.067-9.511v-22.756c0-1.093,0.171-2.139,0.319-3.174c-0.205-5.792-0.319-12.231-0.319-19.581
		c0-25.133,20.378-45.511,45.511-45.511c19.046,0,35.316,11.731,42.109,28.342c3.982-3.436,9.102-5.587,14.779-5.587
		c7.703,0,14.484,3.846,18.603,9.705c8.078-12.641,22.164-21.083,38.286-21.083c14.803,0,27.819,7.18,36.136,18.125
		c4.141-10.593,14.381-18.125,26.442-18.125c10.797,0,20.082,6.087,24.906,14.95c4.517-2.219,9.535-3.572,14.917-3.572
		c18.853,0,34.133,15.281,34.133,34.133c0,3.515-0.057,6.713-0.182,9.649c0.045,0.581,0.182,1.138,0.182,1.729v22.756
		c0,22.756-22.756,45.511-45.511,45.511h-204.8C39.822,36,17.067,13.244,17.067-9.511z"/>
</g>
<g>
</g>
<g>
</g>
<g>
</g>
<g>
</g>
<g>
</g>
<g>
</g>
<g>
</g>
<g>
</g>
<g>
</g>
<g>
</g>
<g>
</g>
<g>
</g>
<g>
</g>
<g>
</g>
<g>
</g>
</svg>
