<?xml version="1.0" encoding="iso-8859-1"?>
<!-- Generator: Adobe Illustrator 19.0.0, SVG Export Plug-In . SVG Version: 6.00 Build 0)  -->
<svg version="1.1" id="Capa_1" xmlns="http://www.w3.org/2000/svg" xmlns:xlink="http://www.w3.org/1999/xlink" x="0px" y="0px"
	 viewBox="0 0 512 512" style="enable-background:new 0 0 512 512;" xml:space="preserve">
<circle style="fill:#40814B;" cx="256" cy="255.997" r="255.997"/>
<path style="fill:#2E6338;" d="M224.128,72.671h-20.315h-20.315v18.498v99.21c-18.919,7.943-32.206,26.64-32.206,48.444v184.65
	l87.967,87.967c5.538,0.358,11.118,0.56,16.745,0.56c114.975,0,212.244-75.797,244.572-180.147L364.679,195.956h-17.267
	L224.128,72.671z"/>
<g>
	<path style="fill:#E25F3F;" d="M256.334,423.473H151.291v-184.65c0-29.007,23.515-52.521,52.521-52.521
		s52.521,23.515,52.521,52.521V423.473z"/>
	<rect x="183.501" y="91.169" style="fill:#E25F3F;" width="40.63" height="161.201"/>
</g>
<path style="fill:#B5381F;" d="M224.128,190.379v-99.21h-20.315v332.304h52.521v-184.65
	C256.334,217.019,243.046,198.321,224.128,190.379z"/>
<rect x="183.501" y="72.668" style="fill:#3E3E42;" width="40.63" height="30.39"/>
<rect x="203.816" y="72.668" style="fill:#2D2E30;" width="20.315" height="30.39"/>
<rect x="163.186" y="271.198" style="fill:#FFF9D9;" width="81.259" height="52.779"/>
<rect x="203.816" y="271.198" style="fill:#F6E781;" width="40.63" height="52.779"/>
<g>
	<path style="fill:#E4F0F9;" d="M364.679,195.956h-93.481v81.604c0,25.814,20.926,46.741,46.741,46.741
		c25.814,0,46.741-20.926,46.741-46.741L364.679,195.956L364.679,195.956z"/>
	<rect x="275.661" y="402.997" style="fill:#E4F0F9;" width="84.559" height="20.48"/>
	<rect x="308.026" y="292.662" style="fill:#E4F0F9;" width="19.819" height="123.544"/>
</g>
<path style="fill:#A2C8EA;" d="M364.679,277.561v-81.604h-46.741v227.517h42.282v-20.48h-32.372V323.24
	C348.901,318.692,364.679,299.974,364.679,277.561z"/>
<g>
</g>
<g>
</g>
<g>
</g>
<g>
</g>
<g>
</g>
<g>
</g>
<g>
</g>
<g>
</g>
<g>
</g>
<g>
</g>
<g>
</g>
<g>
</g>
<g>
</g>
<g>
</g>
<g>
</g>
</svg>
